<svg xmlns="http://www.w3.org/2000/svg" width="210mm" height="297mm" viewBox="0 0 210 297">
  <rect x="0" y="0" width="210" height="297" fill="white"/>
  <image href="DICT_APRILTAG_36h11_id0_150mm.png" x="30" y="73.5" width="150" height="150" preserveAspectRatio="none"/>
  <line x1="30" y1="73.5" x2="180" y2="73.5" stroke="black" stroke-width="0.4"/>
  <line x1="30" y1="73.5" x2="30" y2="223.5" stroke="black" stroke-width="0.4"/>
  <text x="105" y="67.5" font-size="5" text-anchor="middle" fill="black">DICT_APRILTAG_36h11 id=0 size=150mm</text>
  <text x="105" y="72" font-size="4" text-anchor="middle" fill="black">150 mm</text>
  <text x="27" y="148.5" font-size="4" text-anchor="middle" fill="black" transform="rotate(-90 27 148.5)">150 mm</text>
  <line x1="20" y1="279" x2="120" y2="279" stroke="black" stroke-width="0.4"/>
  <line x1="20" y1="274.5" x2="20" y2="283.5" stroke="black" stroke-width="0.35"/>
  <text x="20" y="273" font-size="3.5" text-anchor="middle" fill="black">0</text>
  <line x1="30" y1="276" x2="30" y2="282" stroke="black" stroke-width="0.35"/>
  <text x="30" y="273" font-size="3.5" text-anchor="middle" fill="black">10</text>
  <line x1="40" y1="276" x2="40" y2="282" stroke="black" stroke-width="0.35"/>
  <text x="40" y="273" font-size="3.5" text-anchor="middle" fill="black">20</text>
  <line x1="50" y1="276" x2="50" y2="282" stroke="black" stroke-width="0.35"/>
  <text x="50" y="273" font-size="3.5" text-anchor="middle" fill="black">30</text>
  <line x1="60" y1="276" x2="60" y2="282" stroke="black" stroke-width="0.35"/>
  <text x="60" y="273" font-size="3.5" text-anchor="middle" fill="black">40</text>
  <line x1="70" y1="274.5" x2="70" y2="283.5" stroke="black" stroke-width="0.35"/>
  <text x="70" y="273" font-size="3.5" text-anchor="middle" fill="black">50</text>
  <line x1="80" y1="276" x2="80" y2="282" stroke="black" stroke-width="0.35"/>
  <text x="80" y="273" font-size="3.5" text-anchor="middle" fill="black">60</text>
  <line x1="90" y1="276" x2="90" y2="282" stroke="black" stroke-width="0.35"/>
  <text x="90" y="273" font-size="3.5" text-anchor="middle" fill="black">70</text>
  <line x1="100" y1="276" x2="100" y2="282" stroke="black" stroke-width="0.35"/>
  <text x="100" y="273" font-size="3.5" text-anchor="middle" fill="black">80</text>
  <line x1="110" y1="276" x2="110" y2="282" stroke="black" stroke-width="0.35"/>
  <text x="110" y="273" font-size="3.5" text-anchor="middle" fill="black">90</text>
  <line x1="120" y1="274.5" x2="120" y2="283.5" stroke="black" stroke-width="0.35"/>
  <text x="70" y="288" font-size="4" text-anchor="middle" fill="black">Print check ruler: 100 mm</text>
</svg>
